<svg xmlns="http://www.w3.org/2000/svg" width="249" height="80.047" viewBox="0 0 249 80.047">
  <g id="Group_116" data-name="Group 116" transform="translate(-29 -430.953)">
    <text id="BouncingBorders" transform="translate(29 504)" fill="#212020" font-size="27" font-family="Coiny-Regular, Coiny" letter-spacing="0.03em"><tspan x="0" y="0">BouncingBorders</tspan></text>
    <g id="Group_109" data-name="Group 109" transform="translate(-871.779 -425.5)">
      <path id="Path_184" data-name="Path 184" d="M1057.634,888.92l.529-.793a.657.657,0,0,1,1.013-.1l2.992,2.992a1.153,1.153,0,0,1,.339.817v2.356a.88.88,0,0,0,.437.751c1.176.721,2.325,3.31,3.025,4.8a.377.377,0,0,0,.7-.06l2.413-8.376a1.909,1.909,0,0,0-.356-1.676l-.453-.567a1.794,1.794,0,0,1,0-2.242l.505-.631a1.706,1.706,0,0,0,.3-1.534c-5.9-20.264-14.387-29.931-26.061-38.735a.764.764,0,0,0-.96.034l-.408.357a.836.836,0,0,0-.266.448c-.788,3.37-3.755,7.6-5.825,10.076a.689.689,0,0,0-.032.848l1.673,2.343a.9.9,0,0,0,1.138.283l.755-.377a.64.64,0,0,1,.818.217l1.286,1.93a.631.631,0,0,0,.874.174l.514-.343a.507.507,0,0,0,.141-.7l-.459-.687a.69.69,0,0,1,.146-.926l1.477-1.166a.862.862,0,0,0-.146-1.241l-.644-.483a.944.944,0,0,1-.311-1.106l1.49-2.728a1.1,1.1,0,0,1,.677-.638l1.091-.364a.763.763,0,0,1,.979.922l-.951,2.552a.841.841,0,0,0,.436.969l.862.431a.862.862,0,0,0,.954-.124l.751-.661a.707.707,0,0,1,1.124.268l.337.843a.735.735,0,0,1-.39.948l-1.693.734a.7.7,0,0,0-.4.836l.161.562a.584.584,0,0,1-.345.7l-1.271.508a.874.874,0,0,0-.532.983l.137.686a.97.97,0,0,1-.844,1.155l-6.569.73a1.836,1.836,0,0,0-1.487,1.108,13.071,13.071,0,0,1-4.787,5.216,1.189,1.189,0,0,0,.154,2.038l.448.224a1.423,1.423,0,0,1,.761,1l0,.008a1.621,1.621,0,0,1-1.428,1.923l-1.485.149a2.382,2.382,0,0,0-2.055,1.716l-.187.654a2.427,2.427,0,0,0,.053,1.6,2.528,2.528,0,0,0,2.328,1.548h.659a3.31,3.31,0,0,0,2.917-1.687,21.585,21.585,0,0,0,1.3-3.118,1.361,1.361,0,0,1,.735-.8l3.13-1.39a1.222,1.222,0,0,1,1.3.2l1.883,1.523a1.259,1.259,0,0,1,.43.949v.506a1.15,1.15,0,0,1-.23.69l-.327.438a1.687,1.687,0,0,0,.414,2.416l.594.4a.981.981,0,0,0,1.092,0l.409-.272a.864.864,0,0,0,.36-.929l-.215-.861a.9.9,0,0,1,.238-.859l.175-.176a.738.738,0,0,0,.085-.943l-1.637-3.776c-.376-.542,0-1,1,0l2.506,2.486a.884.884,0,0,1,.327.873L1048,879.1a.9.9,0,0,0,.344.9l1,.751a.869.869,0,0,0,1,.028l.378-.252a.9.9,0,0,0,.355-1.035l-.5-1.492a.591.591,0,0,1,.561-.778h.662a.955.955,0,0,1,.954.955v4.266a.689.689,0,0,0,1,.616l4.12-2.06a.709.709,0,0,1,.99.411l.442,1.325a1.4,1.4,0,0,1-.339,1.436l-.014.014a2.457,2.457,0,0,1-.8.535l-4.686,1.953a.935.935,0,0,1-1.136-.344l-.217-.327a1.437,1.437,0,0,0-.915-.612l-1.039-.208a1.086,1.086,0,0,0-1.184.58l-.605,1.209a.783.783,0,0,1-1.255.2l-1.358-1.36a1.449,1.449,0,0,0-.737-.394l-1.343-.268a1.389,1.389,0,0,1-.97-.742l-.58-1.16a1.675,1.675,0,0,0-1.855-.892,101.6,101.6,0,0,0-10.062,2.839,1.263,1.263,0,0,0-.843,1.2v2.525a2.346,2.346,0,0,1-.687,1.658l-2.791,2.791a.534.534,0,0,0,.376.912l17.617.053a2.768,2.768,0,0,0,1.062-.207Z" transform="translate(10.782 11.949)" fill="#fff"/>
      <path id="Path_185" data-name="Path 185" d="M1068.006,903.241" transform="translate(10.644 11.759)" fill="#fff"/>
      <path id="Path_186" data-name="Path 186" d="M1025.483,868.4l.329.262a.658.658,0,0,0,.823,0l1.737-1.383c.11-.088.3-.026.3.1v2.086c0,.247.3.421.6.343l2.87-.762a.746.746,0,0,0,.338-.187l1.788-1.781a.78.78,0,0,0,.031-1.073l-5.222-6.82a.684.684,0,0,0-.889-.059l-1.571,1.252a1.179,1.179,0,0,0-.116,1.12l.626,1.615a.613.613,0,0,1-.257.868l-1.506.9a.679.679,0,0,0-.358.571l.2,2.417A.757.757,0,0,0,1025.483,868.4Z" transform="translate(10.784 11.905)" fill="#fff"/>
      <path id="Path_187" data-name="Path 187" d="M1017.754,852.883h3.94a1.122,1.122,0,0,0,.62-.187l.744-.5a.555.555,0,0,1,.752.129l.834,1.112a.6.6,0,0,1-.056.786l-3.72,3.72a.617.617,0,0,1-.682.131l-3.26-1.408a.574.574,0,0,1-.338-.636c.12-.624.336-1.763.476-2.569A.7.7,0,0,1,1017.754,852.883Z" transform="translate(10.812 11.929)" fill="#fff"/>
      <path id="Path_188" data-name="Path 188" d="M1019.012,844.5a.315.315,0,0,1,.3.4l-1.4,4.7a1.277,1.277,0,0,1-1.035.764c-1.426.2-4.021,1.688-5.189,2.283a1.544,1.544,0,0,0-.68.689l-.5.995a1.4,1.4,0,0,1-.73.671l-1.465.586a1.008,1.008,0,0,0-.605.682c-.454,1.75-1.271,4.558-2.694,5.89a.774.774,0,0,1-1.069-.036l-4.348-4.349a1.507,1.507,0,0,1-.427-1.281l.291-2.039a1.883,1.883,0,0,1,.535-1.069l.322-.322a.806.806,0,0,0-.123-1.239h0a.734.734,0,0,1-.18-1.051l.426-.568a.609.609,0,0,0-.264-.914c-.944-.465-.892-1.877-.72-2.825a.628.628,0,0,1,.514-.505l6.267-1.082a26.377,26.377,0,0,1,4.472-.383Z" transform="translate(10.868 11.953)" fill="#fff"/>
      <path id="Path_189" data-name="Path 189" d="M994.667,878.768a.554.554,0,0,1-.217.938l-2.087.625a2.008,2.008,0,0,1-1.451.1.928.928,0,0,0-1.087.38l-1.8,3.24a1.74,1.74,0,0,1-.835.754l-2.2.944a.94.94,0,0,0-.56,1l.324,2.269a.956.956,0,0,1-.221.76l-2.4,2.795a1.393,1.393,0,0,0-.313.657l-.775,4.258a.574.574,0,0,1-.807.42l-4.642-2.142a3.767,3.767,0,0,0-2.126-.306l-11.565,1.7a1.771,1.771,0,0,1-1.914-1.126l-.36-.955a7.978,7.978,0,0,1-.468-1.9,50.423,50.423,0,0,1,6.9-31.129.705.705,0,0,1,.665-.337l4.531.412a1.093,1.093,0,0,0,.712-.192,11.3,11.3,0,0,1,4.2-1.692,1.033,1.033,0,0,0,.609-.281l1.208-1.207a1.457,1.457,0,0,1,1.078-.443,13.82,13.82,0,0,0,4.51-.72.557.557,0,0,1,.748.522v1.08a.7.7,0,0,1-.51.678l-2.562.732a1.171,1.171,0,0,0-.573.354,26.815,26.815,0,0,0-4.019,8.066.494.494,0,0,0,.311.609l4.459,1.622a.7.7,0,0,1,.457.653v1.555a.789.789,0,0,0,.315.631l1.316.987a.235.235,0,0,0,.375-.155l.4-2.785a.706.706,0,0,1,.2-.4l1.5-1.5a1.074,1.074,0,0,0,.311-.678l.427-5.551a.484.484,0,0,1,.414-.443l2.471-.353a.891.891,0,0,1,.867.388l1.334,2a.45.45,0,0,0,.692.069l1.063-1.063a.611.611,0,0,1,.921.066l3.712,4.95a.929.929,0,0,1,.169.744l-.318,1.59a.935.935,0,0,0,.2.779l1.676,2.01a.426.426,0,0,1-.258.693l-1.787.3a.552.552,0,0,1-.585-.3l-.552-1.1a.7.7,0,0,0-.766-.375l-3.669.734a.527.527,0,0,0-.369.753l.856,1.712a.875.875,0,0,0,.234.291Z" transform="translate(11 11.911)" fill="#fff"/>
      <path id="Path_190" data-name="Path 190" d="M990.823,861.121l1.521-1.368a.956.956,0,0,0,.318-.706l.015-2.235a.266.266,0,0,1,.426-.211l1.078.808a.43.43,0,0,0,.657-.184l.564-1.409a.709.709,0,0,0-.233-.832L994,854.108a1.141,1.141,0,0,1-.433-.688l-.309-1.547a.488.488,0,0,0-.558-.386l-2.012.336a.435.435,0,0,1-.5-.374l-.571-2.356a.467.467,0,0,0-.679-.3l-1.851,1.016a1.123,1.123,0,0,1-.543.14h-1.764a1.034,1.034,0,0,0-.674.249l-2.683,2.3a.8.8,0,0,0-.223.909l.524,1.309a.518.518,0,0,0,.768.239l.681-.453a.988.988,0,0,1,.549-.166h1.646a.918.918,0,0,0,.763-.409l.387-.581a.745.745,0,0,1,.854-.293l.441.146a.708.708,0,0,1,.482.671v.856a.755.755,0,0,0,.565.731l.458.12a.535.535,0,0,1,.38.665l-.293,1.029a.656.656,0,0,1-.631.476h-.59a.557.557,0,0,0-.516.35l-.537,1.342a.247.247,0,0,0,.128.317l3.137,1.433A.394.394,0,0,0,990.823,861.121Z" transform="translate(10.927 11.938)" fill="#fff"/>
      <path id="Path_206" data-name="Path 206" d="M1024.472,894.541" transform="translate(10.786 11.787)" fill="#fff"/>
    </g>
  </g>
</svg>
