<svg xmlns="http://www.w3.org/2000/svg" width="118.274" height="40.516" viewBox="0 0 118.274 40.516">
  <g id="Group_113" data-name="Group 113" transform="translate(-30.653 -430.952)">
    <path id="Path_230" data-name="Path 230" d="M5.785-6.4a.752.752,0,0,0-.423-.747,3.544,3.544,0,0,0-1.41-.2v1.989a4.439,4.439,0,0,0,.994-.091,1.25,1.25,0,0,0,.611-.319A.852.852,0,0,0,5.785-6.4Zm.169,3.471a.928.928,0,0,0-.221-.663A1.241,1.241,0,0,0,5.1-3.919a5.254,5.254,0,0,0-1.144-.1v2.249A3.439,3.439,0,0,0,5.46-2.021.926.926,0,0,0,5.954-2.925Zm1.6-1.7A2.154,2.154,0,0,1,8.762-2.717a2.519,2.519,0,0,1-.2.995,2.676,2.676,0,0,1-.6.864,2.772,2.772,0,0,1-1.047.617,4.43,4.43,0,0,1-1.469.228H2.431a1.423,1.423,0,0,1-1.138-.4A2.267,2.267,0,0,1,.949-1.859v-5.5a1.843,1.843,0,0,1,.156-.78,1.237,1.237,0,0,1,.5-.546,1.568,1.568,0,0,1,.826-.208H5.408a3.4,3.4,0,0,1,2.164.709A2.192,2.192,0,0,1,8.437-6.4a2.9,2.9,0,0,1-.059.618A1.71,1.71,0,0,1,8.2-5.3a1.666,1.666,0,0,1-.273.364A2.887,2.887,0,0,1,7.553-4.628Zm7.033,1.547a3.807,3.807,0,0,0-.169-1.19q-.169-.513-.494-.513a.474.474,0,0,0-.39.26,1.846,1.846,0,0,0-.247.637,3.974,3.974,0,0,0-.078.806,3.4,3.4,0,0,0,.182,1.164q.182.5.52.5t.507-.494A3.624,3.624,0,0,0,14.586-3.081ZM13.91.091a4.42,4.42,0,0,1-1.826-.364,3.016,3.016,0,0,1-1.3-1.092,2.988,2.988,0,0,1-.488-1.7A2.942,2.942,0,0,1,11.31-5.421a3.849,3.849,0,0,1,2.6-.871,3.8,3.8,0,0,1,2.587.871,2.96,2.96,0,0,1,1,2.353,2.843,2.843,0,0,1-1.02,2.314A3.891,3.891,0,0,1,13.91.091Zm7.917-2.834q0,.741.572.741a.525.525,0,0,0,.344-.123.764.764,0,0,0,.228-.345,1.52,1.52,0,0,0,.078-.507V-4.719a1.8,1.8,0,0,1,.156-.774,1.167,1.167,0,0,1,.455-.513,1.324,1.324,0,0,1,.7-.182,1.732,1.732,0,0,1,1.092.306,1.36,1.36,0,0,1,.39,1.124v3.38a1.454,1.454,0,0,1-.325,1.092,1.694,1.694,0,0,1-1.144.3,2.173,2.173,0,0,1-.6-.071.94.94,0,0,1-.4-.215.907.907,0,0,1-.228-.377,3.551,3.551,0,0,1-1.125.494,5.623,5.623,0,0,1-1.319.143,1.4,1.4,0,0,1-1.326-.721,5.147,5.147,0,0,1-.4-2.372q0-.819.039-1.333a6.116,6.116,0,0,1,.124-.884,1.154,1.154,0,0,1,.26-.552,1,1,0,0,1,.416-.26,2.094,2.094,0,0,1,.63-.078,1.6,1.6,0,0,1,1.047.273,1.019,1.019,0,0,1,.318.819ZM31.486-3.5q0-.728-.572-.728A.543.543,0,0,0,30.465-4a1.092,1.092,0,0,0-.2.6v2A1.454,1.454,0,0,1,29.939-.3,1.694,1.694,0,0,1,28.8,0a1.268,1.268,0,0,1-1.047-.357,1.932,1.932,0,0,1-.279-1.177v-3.2A1.547,1.547,0,0,1,27.826-5.8a1.214,1.214,0,0,1,.955-.4,2.138,2.138,0,0,1,.832.143.972.972,0,0,1,.507.494,4.416,4.416,0,0,1,2.47-.663,1.412,1.412,0,0,1,1.333.728,5.156,5.156,0,0,1,.41,2.392q0,.819-.039,1.332a6.116,6.116,0,0,1-.124.884,1.118,1.118,0,0,1-.266.552,1.047,1.047,0,0,1-.423.26A2.041,2.041,0,0,1,32.864,0a1.6,1.6,0,0,1-1.046-.273,1,1,0,0,1-.318-.806Zm8.125-1.365q0-.3-.338-.3a.548.548,0,0,0-.442.273,2.02,2.02,0,0,0-.3.682,3.446,3.446,0,0,0-.1.852,1.437,1.437,0,0,0,.4,1.053,1.436,1.436,0,0,0,1.072.4,3.725,3.725,0,0,0,1.144-.156,2.5,2.5,0,0,0,.475-.195,1.066,1.066,0,0,1,.4-.143.611.611,0,0,1,.3.065.378.378,0,0,1,.162.156.43.43,0,0,1,.046.2,1.073,1.073,0,0,1-.124.442,2.3,2.3,0,0,1-.383.546,3.588,3.588,0,0,1-.6.526,3.046,3.046,0,0,1-.852.4A3.6,3.6,0,0,1,39.39.091a4.009,4.009,0,0,1-2.652-.865A2.92,2.92,0,0,1,35.7-3.146a2.993,2.993,0,0,1,.474-1.683,2.969,2.969,0,0,1,1.306-1.092,4.655,4.655,0,0,1,1.911-.37,5.084,5.084,0,0,1,1.7.24,1.927,1.927,0,0,1,.955.643,1.619,1.619,0,0,1,.286.962,1.439,1.439,0,0,1-.1.507,2,2,0,0,1-.3.52A1.416,1.416,0,0,1,41.34-3a2.353,2.353,0,0,1-.91.163,2.311,2.311,0,0,1-.383-.026,1.082,1.082,0,0,1-.312-.111.516.516,0,0,1-.241-.28,1.342,1.342,0,0,1-.078-.494,2.547,2.547,0,0,1,.1-.63A2.5,2.5,0,0,0,39.611-4.862ZM43.9-8.008a.853.853,0,0,1,.37-.708A1.708,1.708,0,0,1,45.318-9q1.417,0,1.417.988a.829.829,0,0,1-.358.767,2.043,2.043,0,0,1-1.059.221A2,2,0,0,1,44.3-7.254.806.806,0,0,1,43.9-8.008Zm2.821,6.617A1.457,1.457,0,0,1,46.4-.306,1.668,1.668,0,0,1,45.253,0a1.268,1.268,0,0,1-1.047-.357,1.932,1.932,0,0,1-.279-1.177v-3.2A1.547,1.547,0,0,1,44.285-5.8a1.214,1.214,0,0,1,.955-.4,1.732,1.732,0,0,1,1.092.306,1.36,1.36,0,0,1,.39,1.124ZM52.286-3.5q0-.728-.572-.728A.543.543,0,0,0,51.265-4a1.092,1.092,0,0,0-.2.6v2A1.454,1.454,0,0,1,50.739-.3a1.694,1.694,0,0,1-1.144.3,1.268,1.268,0,0,1-1.046-.357,1.932,1.932,0,0,1-.28-1.177v-3.2A1.547,1.547,0,0,1,48.626-5.8a1.214,1.214,0,0,1,.955-.4,2.138,2.138,0,0,1,.832.143.972.972,0,0,1,.507.494,4.416,4.416,0,0,1,2.47-.663,1.412,1.412,0,0,1,1.333.728,5.156,5.156,0,0,1,.41,2.392q0,.819-.039,1.332a6.115,6.115,0,0,1-.124.884,1.118,1.118,0,0,1-.266.552,1.047,1.047,0,0,1-.423.26A2.041,2.041,0,0,1,53.664,0a1.6,1.6,0,0,1-1.046-.273,1,1,0,0,1-.319-.806ZM58.929.078a2.1,2.1,0,0,1-1.7-.839,3.578,3.578,0,0,1-.676-2.308,3.793,3.793,0,0,1,.663-2.353,2.05,2.05,0,0,1,1.7-.871,3.031,3.031,0,0,1,1.95.728A1.168,1.168,0,0,1,61.984-6.2a1.734,1.734,0,0,1,1.1.312,1.35,1.35,0,0,1,.4,1.118v2.379a12.422,12.422,0,0,1-.162,2.164,4.91,4.91,0,0,1-.559,1.593,2.5,2.5,0,0,1-1.092,1.027,3.89,3.89,0,0,1-1.709.338,4.171,4.171,0,0,1-1.3-.2,2.939,2.939,0,0,1-.949-.481,2.772,2.772,0,0,1-.546-.572.926.926,0,0,1-.195-.494.622.622,0,0,1,.143-.416.5.5,0,0,1,.4-.169A2.665,2.665,0,0,1,58.3.741a2.331,2.331,0,0,0,1.021.338A1.19,1.19,0,0,0,60.645-.286,3.9,3.9,0,0,1,58.929.078ZM60.7-1.872l-.013-2.457a.646.646,0,0,0-.559-.364.5.5,0,0,0-.41.247,1.713,1.713,0,0,0-.26.611,3.383,3.383,0,0,0-.085.767A2.738,2.738,0,0,0,59.566-2q.2.462.546.462A.692.692,0,0,0,60.7-1.872ZM70.252-6.4a.752.752,0,0,0-.422-.747,3.544,3.544,0,0,0-1.41-.2v1.989a4.439,4.439,0,0,0,.994-.091,1.25,1.25,0,0,0,.611-.319A.852.852,0,0,0,70.252-6.4Zm.169,3.471a.928.928,0,0,0-.221-.663,1.241,1.241,0,0,0-.637-.332,5.254,5.254,0,0,0-1.144-.1v2.249a3.439,3.439,0,0,0,1.508-.253A.926.926,0,0,0,70.421-2.925Zm1.6-1.7a2.154,2.154,0,0,1,1.209,1.911,2.519,2.519,0,0,1-.2.995,2.676,2.676,0,0,1-.6.864,2.772,2.772,0,0,1-1.047.617,4.43,4.43,0,0,1-1.469.228H66.9a1.423,1.423,0,0,1-1.137-.4,2.267,2.267,0,0,1-.345-1.443v-5.5a1.843,1.843,0,0,1,.156-.78,1.237,1.237,0,0,1,.5-.546,1.568,1.568,0,0,1,.826-.208h2.977a3.4,3.4,0,0,1,2.165.709A2.192,2.192,0,0,1,72.9-6.4a2.9,2.9,0,0,1-.059.618,1.71,1.71,0,0,1-.175.475,1.666,1.666,0,0,1-.273.364A2.887,2.887,0,0,1,72.02-4.628Zm7.033,1.547a3.807,3.807,0,0,0-.169-1.19q-.169-.513-.494-.513a.474.474,0,0,0-.39.26,1.846,1.846,0,0,0-.247.637,3.974,3.974,0,0,0-.078.806,3.4,3.4,0,0,0,.182,1.164q.182.5.52.5t.507-.494A3.624,3.624,0,0,0,79.053-3.081ZM78.377.091A4.42,4.42,0,0,1,76.55-.273a3.016,3.016,0,0,1-1.3-1.092,2.988,2.988,0,0,1-.487-1.7,2.942,2.942,0,0,1,1.014-2.353,3.849,3.849,0,0,1,2.6-.871,3.8,3.8,0,0,1,2.587.871,2.96,2.96,0,0,1,1,2.353A2.843,2.843,0,0,1,80.944-.754,3.891,3.891,0,0,1,78.377.091Zm7.865-1.482a1.457,1.457,0,0,1-.325,1.086A1.692,1.692,0,0,1,84.76,0a1.247,1.247,0,0,1-1.04-.357,1.968,1.968,0,0,1-.273-1.177v-3.2a1.8,1.8,0,0,1,.156-.773,1.167,1.167,0,0,1,.455-.514,1.324,1.324,0,0,1,.7-.182,1.347,1.347,0,0,1,1.3.572A2.432,2.432,0,0,1,87.516-6.2q1.365,0,1.365,1.3a1.2,1.2,0,0,1-.3.845,1.011,1.011,0,0,1-.78.325.819.819,0,0,1-.462-.117q-.175-.117-.325-.234a.543.543,0,0,0-.344-.117.5.5,0,0,0-.429.2Zm10.53-.559a2.476,2.476,0,0,1-.351,1.5A1.285,1.285,0,0,1,95.342,0,1.222,1.222,0,0,1,94.2-.52a3.39,3.39,0,0,1-2.041.611,2.086,2.086,0,0,1-1.69-.839,3.556,3.556,0,0,1-.676-2.295A3.822,3.822,0,0,1,90.454-5.4a2.045,2.045,0,0,1,1.7-.878,2.921,2.921,0,0,1,1.755.6V-7.345a1.585,1.585,0,0,1,.39-1.176,1.419,1.419,0,0,1,1.04-.384,1.694,1.694,0,0,1,1.073.286,1.445,1.445,0,0,1,.357,1.157Zm-2.834.078L93.925-4.3a.655.655,0,0,0-.572-.364.492.492,0,0,0-.4.247,1.8,1.8,0,0,0-.267.611,3.152,3.152,0,0,0-.091.767,2.75,2.75,0,0,0,.2,1.066q.195.468.546.468a.661.661,0,0,0,.13-.013.757.757,0,0,0,.117-.032.583.583,0,0,0,.1-.052.511.511,0,0,0,.091-.071.849.849,0,0,0,.078-.091Zm7.995,1.95a4.087,4.087,0,0,1-2.619-.819A2.7,2.7,0,0,1,98.28-2.977,3.052,3.052,0,0,1,99.3-5.4a3.858,3.858,0,0,1,2.632-.891,3.694,3.694,0,0,1,2.23.539,1.754,1.754,0,0,1,.708,1.476,1.344,1.344,0,0,1-.046.351,1.3,1.3,0,0,1-.143.332,1.2,1.2,0,0,1-.26.3,2.119,2.119,0,0,1-.37.247,1.835,1.835,0,0,1-.494.169,3.046,3.046,0,0,1-.611.059l-1.833.013a1.232,1.232,0,0,0,.468.657,1.444,1.444,0,0,0,.858.24,4.808,4.808,0,0,0,1.144-.143,2.959,2.959,0,0,0,.54-.208,1.145,1.145,0,0,1,.423-.143.452.452,0,0,1,.344.13.453.453,0,0,1,.123.325,1.124,1.124,0,0,1-.208.566,3.165,3.165,0,0,1-.578.663,3.147,3.147,0,0,1-.981.566A3.64,3.64,0,0,1,101.933.078Zm-.884-3.718.975-.013a.305.305,0,0,0,.286-.234,1.346,1.346,0,0,0,.065-.468q0-.819-.494-.819a.492.492,0,0,0-.358.2,1.682,1.682,0,0,0-.305.552A3.122,3.122,0,0,0,101.049-3.64Zm8.229,2.249a1.457,1.457,0,0,1-.325,1.086A1.692,1.692,0,0,1,107.8,0a1.247,1.247,0,0,1-1.04-.357,1.968,1.968,0,0,1-.273-1.177v-3.2a1.8,1.8,0,0,1,.156-.773,1.167,1.167,0,0,1,.455-.514,1.324,1.324,0,0,1,.7-.182,1.347,1.347,0,0,1,1.3.572,2.432,2.432,0,0,1,1.456-.572q1.365,0,1.365,1.3a1.2,1.2,0,0,1-.3.845,1.011,1.011,0,0,1-.78.325.819.819,0,0,1-.462-.117q-.175-.117-.325-.234a.543.543,0,0,0-.344-.117.5.5,0,0,0-.429.2Zm6.786-4.9a3.794,3.794,0,0,1,2.015.494q.806.494.806,1.079a.435.435,0,0,1-.143.312.493.493,0,0,1-.364.143.865.865,0,0,1-.429-.136,4.592,4.592,0,0,1-.442-.293,2.273,2.273,0,0,0-.546-.286,1.974,1.974,0,0,0-.715-.13q-.507,0-.507.312a.393.393,0,0,0,.26.351,4.642,4.642,0,0,0,.761.273,4.642,4.642,0,0,1,.76.273,3.308,3.308,0,0,1,1.339.813,1.735,1.735,0,0,1,.364,1.15,1.4,1.4,0,0,1-.195.7,2.25,2.25,0,0,1-.585.65,3.054,3.054,0,0,1-1.06.494,5.646,5.646,0,0,1-1.527.189,3.592,3.592,0,0,1-2.509-.767,1.08,1.08,0,0,1-.4-.78.493.493,0,0,1,.163-.39.676.676,0,0,1,.461-.143,2.419,2.419,0,0,1,.91.292,2.641,2.641,0,0,0,1.131.293q.715,0,.715-.351,0-.182-.377-.292t-.988-.267a3.349,3.349,0,0,1-.975-.39,1.678,1.678,0,0,1-.8-.617,1.7,1.7,0,0,1-.228-.9,1.732,1.732,0,0,1,.865-1.489A3.96,3.96,0,0,1,116.064-6.292Z" transform="translate(29.704 468.738)" fill="#212020"/>
    <path id="Path_184" data-name="Path 184" d="M1041.837,867.551l.267-.4a.332.332,0,0,1,.511-.051l1.51,1.51a.581.581,0,0,1,.171.413v1.189a.444.444,0,0,0,.22.379,6.717,6.717,0,0,1,1.527,2.424.19.19,0,0,0,.355-.03l1.218-4.228a.964.964,0,0,0-.18-.846l-.229-.286a.906.906,0,0,1,0-1.131l.255-.318a.86.86,0,0,0,.153-.774c-2.976-10.228-7.262-15.108-13.154-19.552a.386.386,0,0,0-.484.017l-.206.18a.422.422,0,0,0-.134.226,14.76,14.76,0,0,1-2.94,5.086.348.348,0,0,0-.016.428l.844,1.183a.456.456,0,0,0,.575.143l.381-.19a.323.323,0,0,1,.413.11l.649.974a.318.318,0,0,0,.441.088l.26-.173a.256.256,0,0,0,.071-.356l-.232-.347a.349.349,0,0,1,.074-.467l.745-.589a.435.435,0,0,0-.073-.626l-.325-.244a.477.477,0,0,1-.157-.558l.752-1.377a.558.558,0,0,1,.342-.322l.551-.184a.385.385,0,0,1,.494.465l-.48,1.288a.424.424,0,0,0,.22.489l.435.217a.435.435,0,0,0,.481-.062l.379-.333a.357.357,0,0,1,.567.135l.17.426a.371.371,0,0,1-.2.478l-.854.37a.354.354,0,0,0-.2.422l.081.284a.3.3,0,0,1-.174.355l-.641.257a.441.441,0,0,0-.269.5l.069.346a.49.49,0,0,1-.426.583l-3.316.368a.927.927,0,0,0-.751.559,6.6,6.6,0,0,1-2.416,2.633.6.6,0,0,0,.078,1.029l.227.113a.719.719,0,0,1,.384.5v0a.818.818,0,0,1-.721.97l-.75.075a1.2,1.2,0,0,0-1.037.866l-.095.33a1.226,1.226,0,0,0,.027.809,1.276,1.276,0,0,0,1.175.781h.333a1.671,1.671,0,0,0,1.473-.851,10.917,10.917,0,0,0,.658-1.574.687.687,0,0,1,.371-.4l1.58-.7a.617.617,0,0,1,.657.1l.951.769a.635.635,0,0,1,.217.479v.256a.58.58,0,0,1-.116.348l-.165.221a.851.851,0,0,0,.209,1.219l.3.2a.5.5,0,0,0,.551,0l.206-.137a.436.436,0,0,0,.182-.469l-.109-.435a.456.456,0,0,1,.12-.434l.089-.089a.372.372,0,0,0,.043-.476l-.826-1.906c-.189-.274,0-.5.5,0l1.265,1.255a.446.446,0,0,1,.165.441l-.135.677a.456.456,0,0,0,.173.454l.506.379a.439.439,0,0,0,.507.014l.191-.127a.455.455,0,0,0,.179-.522l-.251-.753a.3.3,0,0,1,.283-.393h.334a.482.482,0,0,1,.481.482v2.153a.348.348,0,0,0,.5.311l2.079-1.04a.358.358,0,0,1,.5.207l.223.669a.708.708,0,0,1-.171.725l-.007.007a1.239,1.239,0,0,1-.4.27l-2.365.986a.472.472,0,0,1-.574-.174l-.11-.165a.725.725,0,0,0-.462-.309l-.524-.105a.548.548,0,0,0-.6.293l-.306.61a.4.4,0,0,1-.633.1l-.686-.686a.732.732,0,0,0-.372-.2l-.678-.135a.7.7,0,0,1-.49-.374l-.293-.586a.845.845,0,0,0-.936-.45,51.267,51.267,0,0,0-5.079,1.433.638.638,0,0,0-.426.6v1.274a1.184,1.184,0,0,1-.347.837l-1.409,1.409a.27.27,0,0,0,.19.46l8.892.027a1.4,1.4,0,0,0,.536-.1Z" transform="translate(-929.019 -414.18)" fill="#cb74cb"/>
    <path id="Path_185" data-name="Path 185" d="M1068.006,903.241" transform="translate(-950.022 -442.736)" fill="none"/>
    <path id="Path_186" data-name="Path 186" d="M1025.244,863.734l.166.132a.332.332,0,0,0,.415,0l.877-.7c.055-.044.151-.013.151.05v1.053c0,.125.153.212.3.173l1.449-.385a.378.378,0,0,0,.171-.095l.9-.9a.394.394,0,0,0,.016-.541l-2.636-3.443a.345.345,0,0,0-.449-.03l-.793.632a.6.6,0,0,0-.059.565l.316.815a.309.309,0,0,1-.13.438l-.76.454a.342.342,0,0,0-.181.288l.1,1.22A.382.382,0,0,0,1025.244,863.734Z" transform="translate(-928.653 -420.744)" fill="#cb74cb"/>
    <path id="Path_187" data-name="Path 187" d="M1017.172,852.5h1.989a.566.566,0,0,0,.313-.095l.375-.25a.28.28,0,0,1,.379.065l.421.561a.3.3,0,0,1-.028.4l-1.878,1.878a.311.311,0,0,1-.344.066l-1.646-.711a.29.29,0,0,1-.171-.321c.06-.315.17-.89.24-1.3A.353.353,0,0,1,1017.172,852.5Z" transform="translate(-924.468 -417.326)" fill="#cb74cb"/>
    <path id="Path_188" data-name="Path 188" d="M1009.183,844.5a.159.159,0,0,1,.152.2l-.7,2.372a.645.645,0,0,1-.522.386,11.711,11.711,0,0,0-2.619,1.153.779.779,0,0,0-.343.348l-.251.5a.706.706,0,0,1-.368.339l-.74.3a.509.509,0,0,0-.305.344,6.789,6.789,0,0,1-1.36,2.973.391.391,0,0,1-.54-.018l-2.195-2.2a.761.761,0,0,1-.215-.646l.147-1.029a.95.95,0,0,1,.27-.54l.163-.163a.407.407,0,0,0-.062-.625h0a.37.37,0,0,1-.091-.53l.215-.287a.308.308,0,0,0-.133-.461c-.476-.235-.45-.947-.363-1.426a.317.317,0,0,1,.26-.255l3.163-.546A13.307,13.307,0,0,1,1005,844.5Z" transform="translate(-915.816 -413.547)" fill="#5f70b7"/>
    <path id="Path_189" data-name="Path 189" d="M976.945,868.263a.28.28,0,0,1-.11.474l-1.053.315a1.014,1.014,0,0,1-.733.052.468.468,0,0,0-.549.192l-.909,1.636a.877.877,0,0,1-.422.38l-1.112.476a.475.475,0,0,0-.283.5l.164,1.145a.483.483,0,0,1-.112.383l-1.209,1.411a.7.7,0,0,0-.158.332l-.391,2.149a.29.29,0,0,1-.407.212l-2.343-1.081a1.9,1.9,0,0,0-1.073-.154l-5.838.86a.894.894,0,0,1-.966-.568l-.182-.482a4.028,4.028,0,0,1-.236-.96,25.451,25.451,0,0,1,3.483-15.713.356.356,0,0,1,.336-.17l2.287.208a.551.551,0,0,0,.359-.1,5.707,5.707,0,0,1,2.119-.854.521.521,0,0,0,.307-.142l.61-.609a.736.736,0,0,1,.544-.223,6.971,6.971,0,0,0,2.276-.363.281.281,0,0,1,.377.264v.545a.356.356,0,0,1-.258.342l-1.293.369a.591.591,0,0,0-.289.178,13.535,13.535,0,0,0-2.028,4.072.249.249,0,0,0,.157.307l2.251.818a.351.351,0,0,1,.231.33v.785a.4.4,0,0,0,.159.319l.664.5a.119.119,0,0,0,.189-.078l.2-1.406a.356.356,0,0,1,.1-.2l.758-.758a.541.541,0,0,0,.157-.342l.216-2.8a.244.244,0,0,1,.209-.223l1.247-.178a.45.45,0,0,1,.438.2l.673,1.01a.227.227,0,0,0,.349.035l.537-.537a.308.308,0,0,1,.465.033l1.874,2.5a.47.47,0,0,1,.085.375l-.16.8a.472.472,0,0,0,.1.393l.846,1.015a.215.215,0,0,1-.13.35l-.9.15a.279.279,0,0,1-.3-.15l-.279-.557a.355.355,0,0,0-.387-.189l-1.852.371a.266.266,0,0,0-.186.38l.432.864a.441.441,0,0,0,.118.147Z" transform="translate(-895.799 -420.035)" fill="#5f70b7"/>
    <path id="Path_190" data-name="Path 190" d="M986.028,854.987l.768-.691a.483.483,0,0,0,.161-.356l.008-1.128a.134.134,0,0,1,.215-.107l.544.408a.217.217,0,0,0,.332-.093l.285-.711a.358.358,0,0,0-.118-.42l-.588-.441a.576.576,0,0,1-.219-.347l-.156-.781a.246.246,0,0,0-.282-.195l-1.016.169a.219.219,0,0,1-.254-.189l-.288-1.189a.236.236,0,0,0-.343-.151l-.934.513a.567.567,0,0,1-.274.07h-.89a.522.522,0,0,0-.34.126l-1.354,1.161a.406.406,0,0,0-.113.459l.265.661a.261.261,0,0,0,.388.121l.344-.229a.5.5,0,0,1,.277-.084h.831a.463.463,0,0,0,.385-.206l.2-.293a.376.376,0,0,1,.431-.148l.222.074a.357.357,0,0,1,.243.339v.432a.381.381,0,0,0,.285.369l.231.06a.27.27,0,0,1,.192.336l-.148.519a.331.331,0,0,1-.318.241h-.3a.281.281,0,0,0-.261.177l-.271.677a.125.125,0,0,0,.064.16l1.583.723A.2.2,0,0,0,986.028,854.987Z" transform="translate(-906.86 -415.652)" fill="#5f70b7"/>
    <path id="Path_206" data-name="Path 206" d="M1024.472,894.541" transform="translate(-928.391 -438.414)" fill="#fff"/>
  </g>
</svg>
