<svg xmlns="http://www.w3.org/2000/svg" width="35.682" height="39.716" viewBox="0 0 35.682 39.716">
  <g id="explore" transform="translate(-26.002)">
    <path id="Path_17" data-name="Path 17" d="M56.459,9.259A17.706,17.706,0,0,0,46.17,4.184V2.327a2.327,2.327,0,0,0-4.654,0V4.185a17.737,17.737,0,0,0-7.442,2.76.776.776,0,0,0,.851,1.3,16.2,16.2,0,0,1,7.423-2.589l.037,0q.725-.064,1.459-.065a16.288,16.288,0,1,1-13.632,7.371.776.776,0,1,0-1.3-.851A17.842,17.842,0,1,0,56.459,9.259ZM43.067,4.051V2.327a.776.776,0,1,1,1.551,0V4.051c-.258-.011-.516-.018-.776-.018s-.518.006-.776.017Z" fill="#fff"/>
    <path id="Path_18" data-name="Path 18" d="M80.738,121.479A14.738,14.738,0,1,0,66,106.74,14.755,14.755,0,0,0,80.738,121.479Zm0-27.925A13.187,13.187,0,1,1,67.551,106.74,13.2,13.2,0,0,1,80.738,93.553Z" transform="translate(-36.895 -84.865)" fill="#fff"/>
    <path id="Path_21" data-name="Path 21" d="M-17839.209,7210.187h6.652" transform="translate(17874.326 -7188.395)" fill="none" stroke="#fff" stroke-linecap="round" stroke-width="2"/>
    <path id="Path_22" data-name="Path 22" d="M-17839.209,7210.187h6.652" transform="translate(17885.15 -7188.395)" fill="none" stroke="#fff" stroke-linecap="round" stroke-width="2"/>
    <path id="Path_19" data-name="Path 19" d="M4.819,8.291,5.5,9.315a.775.775,0,0,0,.219.219l1.024.678,1.551,1.027L13.826,14.9A.776.776,0,0,0,14.9,13.826L11.238,8.291,10.211,6.739,9.533,5.716A.776.776,0,0,0,9.315,5.5L8.291,4.819,6.739,3.793,1.2.129A.776.776,0,0,0,.129,1.2L3.793,6.739ZM8.327,6.7,11.5,11.5,6.7,8.327l-3.177-4.8Z" transform="translate(43.843 11.247) rotate(45)" fill="#fff"/>
    <path id="Path_20" data-name="Path 20" d="M91.214,117.988a.773.773,0,0,0,.522-.2h0a.776.776,0,1,0-.522.2Z" transform="translate(-59.437 -107.404)" fill="#fff"/>
  </g>
</svg>
