<svg xmlns="http://www.w3.org/2000/svg" width="39" height="39" viewBox="0 0 39 39">
  <g id="Group_100" data-name="Group 100" transform="translate(-909.754 -582.754)">
    <path id="Path_160" data-name="Path 160" d="M19.5,0A19.5,19.5,0,1,1,0,19.5,19.5,19.5,0,0,1,19.5,0Z" transform="translate(909.754 582.754)" fill="#cb74cb"/>
    <g id="instagram" transform="translate(918.494 591.164)">
      <path id="Path_27" data-name="Path 27" d="M22.061,6.371a7.918,7.918,0,0,0-.5-2.629A5.551,5.551,0,0,0,18.386.572a7.939,7.939,0,0,0-2.629-.5C14.6.013,14.229,0,11.287,0S7.976.013,6.82.063a7.921,7.921,0,0,0-2.629.5A5.288,5.288,0,0,0,2.27,1.82,5.335,5.335,0,0,0,1.021,3.738a7.94,7.94,0,0,0-.5,2.629C.462,7.527.449,7.9.449,10.837s.013,3.31.064,4.466a7.918,7.918,0,0,0,.5,2.629A5.55,5.55,0,0,0,4.187,21.1a7.94,7.94,0,0,0,2.629.5c1.156.051,1.524.063,4.466.063s3.31-.013,4.466-.063a7.916,7.916,0,0,0,2.629-.5,5.543,5.543,0,0,0,3.171-3.171,7.945,7.945,0,0,0,.5-2.629c.051-1.156.063-1.524.063-4.466S22.111,7.527,22.061,6.371Zm-1.951,8.848a5.94,5.94,0,0,1-.373,2.011,3.6,3.6,0,0,1-2.057,2.057,5.961,5.961,0,0,1-2.011.372c-1.143.051-1.486.063-4.377.063s-3.239-.013-4.377-.063A5.937,5.937,0,0,1,4.9,19.287a3.335,3.335,0,0,1-1.245-.809,3.369,3.369,0,0,1-.809-1.245,5.962,5.962,0,0,1-.372-2.011c-.051-1.143-.064-1.486-.064-4.377s.013-3.239.064-4.377A5.937,5.937,0,0,1,2.85,4.458a3.294,3.294,0,0,1,.813-1.245A3.364,3.364,0,0,1,4.907,2.4a5.965,5.965,0,0,1,2.011-.373C8.061,1.981,8.4,1.969,11.3,1.969s3.239.013,4.377.063a5.94,5.94,0,0,1,2.011.373,3.332,3.332,0,0,1,1.245.808,3.368,3.368,0,0,1,.809,1.245,5.964,5.964,0,0,1,.373,2.011c.051,1.143.064,1.486.064,4.377S20.16,14.076,20.109,15.219Zm0,0" transform="translate(-0.449 0)" fill="#fff"/>
      <path id="Path_28" data-name="Path 28" d="M130.516,124.5a5.567,5.567,0,1,0,5.567,5.567A5.568,5.568,0,0,0,130.516,124.5Zm0,9.178a3.611,3.611,0,1,1,3.611-3.611A3.612,3.612,0,0,1,130.516,133.678Zm0,0" transform="translate(-119.679 -119.229)" fill="#fff"/>
      <path id="Path_29" data-name="Path 29" d="M365.049,89.9a1.3,1.3,0,1,1-1.3-1.3A1.3,1.3,0,0,1,365.049,89.9Zm0,0" transform="translate(-347.124 -84.851)" fill="#fff"/>
    </g>
  </g>
</svg>
