<svg xmlns="http://www.w3.org/2000/svg" width="40.044" height="28.364" viewBox="0 0 40.044 28.364">
  <path id="youtube" d="M39.158,7.553l.05.327a5.076,5.076,0,0,0-3.45-3.524l-.035-.008C32.6,3.5,20.039,3.5,20.039,3.5s-12.53-.017-15.684.848a5.079,5.079,0,0,0-3.475,3.5L.871,7.88A55.816,55.816,0,0,0,.923,27.813l-.052-.33a5.076,5.076,0,0,0,3.45,3.524l.035.008c3.118.849,15.684.849,15.684.849s12.529,0,15.684-.849a5.078,5.078,0,0,0,3.477-3.5l.008-.035a52.165,52.165,0,0,0,.834-9.424c0-.122,0-.245,0-.369s0-.249,0-.384a53.818,53.818,0,0,0-.886-9.754ZM16.031,23.774V11.605L26.486,17.7Z" transform="translate(0 -3.5)" fill="#e51010"/>
</svg>
