<svg id="blue-left" xmlns="http://www.w3.org/2000/svg" width="205.386" height="181.907" viewBox="0 0 205.386 181.907">
  <path id="Path_188" data-name="Path 188" d="M1066.75,844.5a1.071,1.071,0,0,1,1.029,1.374l-4.752,16a4.352,4.352,0,0,1-3.524,2.6c-4.858.689-13.692,5.75-17.671,7.776a5.258,5.258,0,0,0-2.315,2.346l-1.69,3.387a4.763,4.763,0,0,1-2.485,2.284l-4.989,2a3.433,3.433,0,0,0-2.06,2.321c-1.548,5.96-4.328,15.522-9.175,20.056a2.635,2.635,0,0,1-3.643-.121l-14.806-14.809a5.131,5.131,0,0,1-1.451-4.362l.991-6.945a6.405,6.405,0,0,1,1.822-3.642l1.1-1.1a2.743,2.743,0,0,0-.418-4.218h0a2.5,2.5,0,0,1-.614-3.577l1.449-1.935a2.075,2.075,0,0,0-.9-3.112c-3.215-1.585-3.037-6.391-2.451-9.619a2.139,2.139,0,0,1,1.751-1.721l21.343-3.686a89.8,89.8,0,0,1,15.23-1.3Z" transform="translate(-862.437 -844.499)" fill="#5f70b7"/>
  <path id="Path_189" data-name="Path 189" d="M1080.74,929.788a1.886,1.886,0,0,1-.74,3.195l-7.107,2.127a6.84,6.84,0,0,1-4.943.354,3.158,3.158,0,0,0-3.7,1.292l-6.13,11.035a5.92,5.92,0,0,1-2.845,2.565l-7.5,3.214a3.2,3.2,0,0,0-1.907,3.395l1.1,7.724a3.253,3.253,0,0,1-.754,2.587l-8.156,9.517a4.753,4.753,0,0,0-1.066,2.236l-2.637,14.5a1.957,1.957,0,0,1-2.749,1.43l-15.807-7.294a12.828,12.828,0,0,0-7.24-1.042l-39.384,5.8a6.03,6.03,0,0,1-6.516-3.835l-1.226-3.252a27.188,27.188,0,0,1-1.592-6.476,171.711,171.711,0,0,1,23.5-106.007,2.4,2.4,0,0,1,2.264-1.147l15.43,1.4a3.718,3.718,0,0,0,2.423-.656c3.934-2.647,10.041-5.226,14.294-5.763a3.512,3.512,0,0,0,2.074-.956l4.114-4.111a4.968,4.968,0,0,1,3.673-1.507,47.033,47.033,0,0,0,15.358-2.45,1.9,1.9,0,0,1,2.546,1.779v3.678a2.4,2.4,0,0,1-1.738,2.308l-8.724,2.492a3.983,3.983,0,0,0-1.951,1.2c-5.533,6.379-11.2,19.452-13.685,27.47a1.682,1.682,0,0,0,1.058,2.073l15.187,5.522a2.37,2.37,0,0,1,1.557,2.224v5.294a2.688,2.688,0,0,0,1.073,2.15l4.48,3.36a.8.8,0,0,0,1.276-.527l1.354-9.483a2.406,2.406,0,0,1,.679-1.361l5.116-5.112a3.653,3.653,0,0,0,1.059-2.308l1.456-18.9a1.647,1.647,0,0,1,1.409-1.507l8.415-1.2a3.034,3.034,0,0,1,2.953,1.32l4.541,6.812a1.531,1.531,0,0,0,2.356.234l3.622-3.622a2.08,2.08,0,0,1,3.136.224l12.64,16.855a3.169,3.169,0,0,1,.574,2.533l-1.083,5.413a3.181,3.181,0,0,0,.676,2.653l5.706,6.846a1.451,1.451,0,0,1-.879,2.36l-6.085,1.015a1.882,1.882,0,0,1-1.993-1.015l-1.88-3.761a2.4,2.4,0,0,0-2.61-1.277l-12.494,2.5a1.794,1.794,0,0,0-1.255,2.563l2.915,5.831a2.968,2.968,0,0,0,.8.991Z" transform="translate(-958.883 -813.237)" fill="#5f70b7"/>
  <path id="Path_190" data-name="Path 190" d="M1014.111,890.911l5.18-4.66a3.259,3.259,0,0,0,1.083-2.4l.051-7.612a.905.905,0,0,1,1.449-.72l3.669,2.753a1.463,1.463,0,0,0,2.237-.628l1.921-4.8a2.416,2.416,0,0,0-.794-2.834l-3.969-2.976a3.886,3.886,0,0,1-1.477-2.343l-1.052-5.267a1.663,1.663,0,0,0-1.9-1.313l-6.853,1.143a1.48,1.48,0,0,1-1.711-1.272L1010,849.954a1.591,1.591,0,0,0-2.311-1.022l-6.3,3.458a3.822,3.822,0,0,1-1.85.476h-6.008a3.523,3.523,0,0,0-2.3.848l-9.137,7.831a2.741,2.741,0,0,0-.76,3.1l1.786,4.457a1.764,1.764,0,0,0,2.617.815l2.318-1.544a3.369,3.369,0,0,1,1.87-.567h5.6a3.125,3.125,0,0,0,2.6-1.392l1.317-1.979a2.538,2.538,0,0,1,2.909-1l1.5.5a2.409,2.409,0,0,1,1.642,2.284v2.916a2.571,2.571,0,0,0,1.925,2.488l1.562.407a1.821,1.821,0,0,1,1.293,2.264l-1,3.5a2.233,2.233,0,0,1-2.148,1.623h-2.009a1.894,1.894,0,0,0-1.758,1.192l-1.829,4.568a.843.843,0,0,0,.434,1.08l10.682,4.88A1.34,1.34,0,0,0,1014.111,890.911Z" transform="translate(-905.592 -834.36)" fill="#5f70b7"/>
</svg>
