<svg id="Group_135" data-name="Group 135" xmlns="http://www.w3.org/2000/svg" width="169.135" height="89.982" viewBox="0 0 169.135 89.982">
  <path id="Path_184" data-name="Path 184" d="M1074.76,912.086l.813-1.219a1.01,1.01,0,0,1,1.556-.155l4.6,4.6a1.77,1.77,0,0,1,.521,1.256v3.621a1.351,1.351,0,0,0,.671,1.155c1.807,1.108,3.574,5.087,4.649,7.38a.579.579,0,0,0,1.082-.092l3.709-12.873a2.936,2.936,0,0,0-.547-2.575l-.7-.872a2.758,2.758,0,0,1,0-3.445l.777-.97a2.62,2.62,0,0,0,.466-2.357c-9.061-31.144-22.111-46-40.052-59.531a1.174,1.174,0,0,0-1.475.052l-.626.548a1.286,1.286,0,0,0-.409.688c-1.211,5.179-5.77,11.686-8.952,15.485a1.059,1.059,0,0,0-.049,1.3l2.571,3.6a1.389,1.389,0,0,0,1.75.435l1.159-.579a.983.983,0,0,1,1.258.334l1.976,2.966a.969.969,0,0,0,1.343.268l.79-.527a.779.779,0,0,0,.216-1.083l-.706-1.055a1.062,1.062,0,0,1,.226-1.423l2.27-1.792a1.324,1.324,0,0,0-.224-1.907l-.989-.743a1.451,1.451,0,0,1-.478-1.7l2.29-4.192a1.7,1.7,0,0,1,1.04-.98l1.678-.559a1.173,1.173,0,0,1,1.5,1.417l-1.461,3.921a1.292,1.292,0,0,0,.669,1.489l1.325.662a1.324,1.324,0,0,0,1.466-.19l1.155-1.015a1.087,1.087,0,0,1,1.727.412l.517,1.3a1.129,1.129,0,0,1-.6,1.457l-2.6,1.127a1.078,1.078,0,0,0-.608,1.286l.248.864a.9.9,0,0,1-.53,1.082l-1.953.781a1.343,1.343,0,0,0-.818,1.511l.21,1.054a1.492,1.492,0,0,1-1.3,1.775l-10.1,1.121a2.822,2.822,0,0,0-2.286,1.7c-1.517,3.566-4.747,6.214-7.358,8.016a1.827,1.827,0,0,0,.237,3.133l.69.345a2.188,2.188,0,0,1,1.169,1.53l0,.012a2.492,2.492,0,0,1-2.2,2.955l-2.282.229a3.661,3.661,0,0,0-3.159,2.637l-.288,1a3.732,3.732,0,0,0,.081,2.463,3.885,3.885,0,0,0,3.578,2.379h1.013a5.087,5.087,0,0,0,4.484-2.592,33.245,33.245,0,0,0,2-4.791,2.094,2.094,0,0,1,1.13-1.226l4.811-2.137a1.878,1.878,0,0,1,2,.3l2.894,2.341a1.933,1.933,0,0,1,.661,1.458v.778a1.764,1.764,0,0,1-.354,1.06l-.5.672a2.592,2.592,0,0,0,.635,3.713l.913.608a1.508,1.508,0,0,0,1.679,0l.628-.418a1.329,1.329,0,0,0,.553-1.428l-.331-1.323a1.387,1.387,0,0,1,.366-1.321l.27-.271a1.133,1.133,0,0,0,.13-1.449l-2.515-5.8c-.577-.833,0-1.532,1.532,0l3.851,3.82a1.358,1.358,0,0,1,.5,1.342l-.412,2.06a1.39,1.39,0,0,0,.528,1.382l1.54,1.155a1.336,1.336,0,0,0,1.542.043l.581-.388a1.385,1.385,0,0,0,.546-1.59l-.765-2.293a.909.909,0,0,1,.863-1.2h1.017a1.467,1.467,0,0,1,1.466,1.468v6.556a1.06,1.06,0,0,0,1.532.947l6.332-3.166a1.089,1.089,0,0,1,1.521.631l.678,2.036a2.155,2.155,0,0,1-.521,2.208l-.021.021a3.779,3.779,0,0,1-1.229.823l-7.2,3a1.437,1.437,0,0,1-1.747-.529l-.334-.5a2.208,2.208,0,0,0-1.406-.94l-1.6-.32a1.669,1.669,0,0,0-1.82.891l-.931,1.858a1.2,1.2,0,0,1-1.928.313l-2.087-2.09a2.23,2.23,0,0,0-1.133-.6l-2.063-.412a2.135,2.135,0,0,1-1.491-1.14l-.891-1.783a2.574,2.574,0,0,0-2.851-1.371,156.111,156.111,0,0,0-15.464,4.363,1.941,1.941,0,0,0-1.3,1.841v3.88a3.607,3.607,0,0,1-1.055,2.549l-4.289,4.289a.821.821,0,0,0,.578,1.4l27.075.081a4.25,4.25,0,0,0,1.632-.319Z" transform="translate(-923.326 -843.822)" fill="#cb74cb"/>
  <path id="Path_185" data-name="Path 185" d="M1068.006,903.241" transform="translate(-900.844 -813.259)" fill="none"/>
  <path id="Path_186" data-name="Path 186" d="M1025.743,873.449l.506.4a1.011,1.011,0,0,0,1.264,0l2.67-2.126c.168-.135.458-.04.458.152v3.206c0,.38.465.646.916.527l4.411-1.172a1.151,1.151,0,0,0,.52-.288l2.748-2.738a1.2,1.2,0,0,0,.048-1.648l-8.026-10.482a1.051,1.051,0,0,0-1.366-.091l-2.414,1.924a1.812,1.812,0,0,0-.18,1.722l.962,2.482a.942.942,0,0,1-.4,1.334l-2.315,1.382a1.043,1.043,0,0,0-.55.878l.3,3.715A1.163,1.163,0,0,0,1025.743,873.449Z" transform="translate(-923.718 -836.797)" fill="#cb74cb"/>
  <path id="Path_187" data-name="Path 187" d="M1018.386,853.3h6.055a1.723,1.723,0,0,0,.953-.288l1.143-.763a.853.853,0,0,1,1.155.2l1.282,1.709a.926.926,0,0,1-.086,1.209l-5.717,5.717a.949.949,0,0,1-1.048.2l-5.01-2.164a.882.882,0,0,1-.52-.978c.184-.959.516-2.71.732-3.948A1.074,1.074,0,0,1,1018.386,853.3Z" transform="translate(-928.197 -840.452)" fill="#cb74cb"/>
  <path id="Path_188" data-name="Path 188" d="M1029.667,844.5a.483.483,0,0,1,.464.62l-2.145,7.221a1.964,1.964,0,0,1-1.59,1.175c-2.192.311-6.179,2.595-7.975,3.509a2.372,2.372,0,0,0-1.045,1.059l-.763,1.529a2.151,2.151,0,0,1-1.122,1.031l-2.252.9a1.549,1.549,0,0,0-.93,1.047c-.7,2.69-1.953,7.005-4.141,9.052a1.189,1.189,0,0,1-1.644-.055l-6.682-6.684a2.316,2.316,0,0,1-.655-1.968l.447-3.134a2.893,2.893,0,0,1,.823-1.644l.495-.495a1.238,1.238,0,0,0-.188-1.9h0a1.127,1.127,0,0,1-.277-1.614l.654-.874a.936.936,0,0,0-.406-1.4c-1.451-.715-1.371-2.885-1.106-4.341a.965.965,0,0,1,.79-.777l9.632-1.663a40.517,40.517,0,0,1,6.874-.588Z" transform="translate(-937.458 -844.499)" fill="#5f70b7"/>
  <path id="Path_189" data-name="Path 189" d="M1013.879,890.156a.851.851,0,0,1-.334,1.442l-3.208.96a3.088,3.088,0,0,1-2.231.16,1.425,1.425,0,0,0-1.671.583l-2.766,4.98a2.673,2.673,0,0,1-1.284,1.158L999,900.889a1.446,1.446,0,0,0-.861,1.532l.5,3.486a1.47,1.47,0,0,1-.34,1.167l-3.681,4.3a2.146,2.146,0,0,0-.481,1.01l-1.19,6.544a.883.883,0,0,1-1.241.645l-7.134-3.292a5.79,5.79,0,0,0-3.267-.47l-17.775,2.618a2.722,2.722,0,0,1-2.941-1.731l-.553-1.468a12.254,12.254,0,0,1-.719-2.923,77.5,77.5,0,0,1,10.607-47.842,1.084,1.084,0,0,1,1.022-.518l6.964.633a1.678,1.678,0,0,0,1.094-.3,17.38,17.38,0,0,1,6.451-2.6,1.586,1.586,0,0,0,.936-.431l1.856-1.855a2.242,2.242,0,0,1,1.658-.68,21.228,21.228,0,0,0,6.931-1.106.857.857,0,0,1,1.149.8v1.66a1.084,1.084,0,0,1-.784,1.042l-3.937,1.124a1.8,1.8,0,0,0-.881.543c-2.5,2.879-5.057,8.779-6.176,12.4a.76.76,0,0,0,.478.936l6.854,2.492a1.069,1.069,0,0,1,.7,1V882a1.212,1.212,0,0,0,.484.97l2.022,1.517a.362.362,0,0,0,.576-.238l.611-4.28a1.085,1.085,0,0,1,.307-.614l2.308-2.307a1.648,1.648,0,0,0,.478-1.042l.657-8.531a.743.743,0,0,1,.636-.68l3.8-.542a1.369,1.369,0,0,1,1.333.6l2.05,3.075a.691.691,0,0,0,1.063.105l1.635-1.635a.939.939,0,0,1,1.415.1l5.7,7.607a1.429,1.429,0,0,1,.259,1.143l-.489,2.443a1.436,1.436,0,0,0,.3,1.2l2.575,3.089a.655.655,0,0,1-.4,1.065l-2.746.458a.849.849,0,0,1-.9-.458l-.848-1.7a1.081,1.081,0,0,0-1.178-.576l-5.639,1.129a.81.81,0,0,0-.567,1.157l1.316,2.632a1.342,1.342,0,0,0,.36.447Z" transform="translate(-958.883 -837.554)" fill="#5f70b7"/>
  <path id="Path_190" data-name="Path 190" d="M996.021,867.77l2.338-2.1a1.471,1.471,0,0,0,.489-1.085l.023-3.436a.409.409,0,0,1,.654-.325l1.656,1.243a.66.66,0,0,0,1.01-.283l.867-2.166a1.09,1.09,0,0,0-.358-1.279l-1.791-1.343a1.756,1.756,0,0,1-.667-1.057l-.475-2.377a.75.75,0,0,0-.858-.593l-3.093.516a.668.668,0,0,1-.772-.574l-.878-3.621a.718.718,0,0,0-1.043-.461l-2.844,1.561a1.73,1.73,0,0,1-.835.215h-2.711a1.591,1.591,0,0,0-1.036.383l-4.124,3.534a1.237,1.237,0,0,0-.343,1.4l.806,2.011a.8.8,0,0,0,1.181.368l1.046-.7a1.521,1.521,0,0,1,.844-.256h2.529a1.41,1.41,0,0,0,1.173-.628l.594-.893a1.145,1.145,0,0,1,1.313-.45l.677.225a1.087,1.087,0,0,1,.741,1.031v1.316a1.161,1.161,0,0,0,.869,1.123l.7.184a.822.822,0,0,1,.584,1.022l-.451,1.581a1.008,1.008,0,0,1-.969.732h-.907a.855.855,0,0,0-.793.538l-.825,2.062a.38.38,0,0,0,.2.487l4.821,2.2A.6.6,0,0,0,996.021,867.77Z" transform="translate(-947.045 -842.248)" fill="#5f70b7"/>
  <path id="Path_206" data-name="Path 206" d="M1024.472,894.541" transform="translate(-923.998 -817.887)" fill="#fff"/>
</svg>
