<svg xmlns="http://www.w3.org/2000/svg" width="178.933" height="184.535" viewBox="0 0 178.933 184.535">
  <g id="Pink-right" transform="translate(0.001 0.001)">
    <path id="Path_184" data-name="Path 184" d="M1134.361,992.708l1.8-2.7a2.239,2.239,0,0,1,3.449-.343l10.189,10.189a3.922,3.922,0,0,1,1.155,2.783v8.024a2.994,2.994,0,0,0,1.487,2.559c4,2.454,7.919,11.273,10.3,16.353a1.283,1.283,0,0,0,2.4-.2l8.218-28.524a6.506,6.506,0,0,0-1.211-5.706l-1.545-1.931a6.111,6.111,0,0,1,0-7.634l1.721-2.148a5.807,5.807,0,0,0,1.032-5.223c-20.077-69.006-48.993-101.927-88.747-131.907a2.6,2.6,0,0,0-3.269.116l-1.388,1.214a2.849,2.849,0,0,0-.907,1.525c-2.684,11.476-12.786,25.893-19.836,34.311a2.345,2.345,0,0,0-.108,2.889l5.7,7.98a3.077,3.077,0,0,0,3.878.964l2.569-1.283a2.179,2.179,0,0,1,2.787.739l4.379,6.571a2.147,2.147,0,0,0,2.976.594l1.751-1.167a1.726,1.726,0,0,0,.48-2.4l-1.565-2.338a2.353,2.353,0,0,1,.5-3.154l5.03-3.971a2.934,2.934,0,0,0-.5-4.225l-2.193-1.646a3.216,3.216,0,0,1-1.059-3.768l5.074-9.29a3.766,3.766,0,0,1,2.3-2.172l3.718-1.239a2.6,2.6,0,0,1,3.332,3.139l-3.237,8.689a2.862,2.862,0,0,0,1.483,3.3l2.937,1.467a2.935,2.935,0,0,0,3.248-.422l2.558-2.25a2.408,2.408,0,0,1,3.827.913l1.145,2.871a2.5,2.5,0,0,1-1.326,3.228l-5.765,2.5a2.389,2.389,0,0,0-1.347,2.848l.549,1.914a1.989,1.989,0,0,1-1.174,2.4l-4.328,1.731a2.976,2.976,0,0,0-1.811,3.347l.465,2.335a3.3,3.3,0,0,1-2.875,3.934l-22.371,2.484a6.254,6.254,0,0,0-5.065,3.774c-3.36,7.9-10.518,13.77-16.3,17.761a4.049,4.049,0,0,0,.526,6.941l1.528.764a4.849,4.849,0,0,1,2.59,3.391l.007.027a5.522,5.522,0,0,1-4.864,6.547l-5.058.506a8.112,8.112,0,0,0-7,5.844l-.638,2.227a8.271,8.271,0,0,0,.18,5.458,8.608,8.608,0,0,0,7.929,5.272h2.244a11.271,11.271,0,0,0,9.935-5.744,73.657,73.657,0,0,0,4.437-10.617,4.639,4.639,0,0,1,2.5-2.716l10.659-4.735a4.162,4.162,0,0,1,4.432.672l6.413,5.186a4.285,4.285,0,0,1,1.465,3.231v1.725a3.908,3.908,0,0,1-.783,2.348l-1.112,1.49a5.743,5.743,0,0,0,1.407,8.227l2.024,1.347a3.341,3.341,0,0,0,3.72,0l1.392-.926a2.943,2.943,0,0,0,1.225-3.163l-.733-2.933a3.073,3.073,0,0,1,.811-2.926l.6-.6a2.511,2.511,0,0,0,.289-3.211l-5.573-12.856c-1.278-1.847,0-3.394,3.4,0l8.533,8.464a3.008,3.008,0,0,1,1.113,2.974l-.912,4.565a3.078,3.078,0,0,0,1.17,3.061l3.412,2.559a2.96,2.96,0,0,0,3.418.1l1.286-.859a3.069,3.069,0,0,0,1.209-3.523l-1.695-5.081a2.014,2.014,0,0,1,1.911-2.65h2.253a3.25,3.25,0,0,1,3.248,3.251v14.527a2.348,2.348,0,0,0,3.395,2.1l14.029-7.016a2.414,2.414,0,0,1,3.37,1.4l1.5,4.511a4.776,4.776,0,0,1-1.154,4.892l-.047.047a8.367,8.367,0,0,1-2.723,1.823l-15.956,6.65a3.185,3.185,0,0,1-3.87-1.172l-.74-1.113a4.895,4.895,0,0,0-3.116-2.083l-3.536-.709a3.7,3.7,0,0,0-4.032,1.975l-2.062,4.117a2.666,2.666,0,0,1-4.272.693l-4.625-4.63a4.94,4.94,0,0,0-2.509-1.341l-4.572-.913a4.732,4.732,0,0,1-3.3-2.525l-1.975-3.951a5.7,5.7,0,0,0-6.317-3.038,345.788,345.788,0,0,0-34.265,9.667,4.3,4.3,0,0,0-2.872,4.08v8.6a7.988,7.988,0,0,1-2.338,5.648l-9.5,9.5a1.819,1.819,0,0,0,1.28,3.106l59.993.18a9.411,9.411,0,0,0,3.615-.707Z" transform="translate(-994.65 -845.773)" fill="#cb74cb"/>
    <path id="Path_186" data-name="Path 186" d="M1026.646,891.036l1.12.893a2.242,2.242,0,0,0,2.8,0l5.916-4.712c.373-.3,1.015-.088,1.015.336v7.1c0,.841,1.031,1.432,2.03,1.167l9.774-2.6a2.553,2.553,0,0,0,1.152-.638l6.088-6.066a2.657,2.657,0,0,0,.105-3.652l-17.783-23.225a2.331,2.331,0,0,0-3.027-.2l-5.349,4.263c-.791.628-.9,3.021-.4,3.814l2.132,5.5a2.087,2.087,0,0,1-.876,2.957l-5.129,3.061a2.311,2.311,0,0,0-1.218,1.945l.675,8.23A2.574,2.574,0,0,0,1026.646,891.036Z" transform="translate(-996.413 -814.143)" fill="#cb74cb"/>
    <path id="Path_187" data-name="Path 187" d="M1020.584,854.752H1034a3.817,3.817,0,0,0,2.111-.638l2.532-1.69a1.89,1.89,0,0,1,2.559.437l2.842,3.788a2.052,2.052,0,0,1-.19,2.678l-12.668,12.667a2.1,2.1,0,0,1-2.321.445l-11.1-4.8a1.955,1.955,0,0,1-1.152-2.166c.408-2.125,1.144-6,1.623-8.747A2.38,2.38,0,0,1,1020.584,854.752Z" transform="translate(-1016.578 -830.603)" fill="#cb74cb"/>
  </g>
</svg>
